<svg width="90" height="90" viewBox="0 0 90 90" fill="none" xmlns="http://www.w3.org/2000/svg">
<path id="Vector" d="M63.0977 4.13186C40.5402 -5.88453 14.1483 4.27648 4.13187 26.8339C-5.88452 49.3914 4.27649 75.7834 26.8339 85.7998C49.3914 95.8161 75.7834 85.6551 85.7998 63.0977C95.8162 40.5402 85.6551 14.1483 63.0977 4.13186ZM27.6945 34.1428C28.3744 32.6115 29.649 31.5611 31.1342 31.0576L26.7099 27.2598C25.4931 26.2267 25.3608 24.3939 26.403 23.2009C27.4361 21.9842 29.2451 21.861 30.4619 22.8941L41.8795 32.6947C43.0962 33.7278 43.2285 35.5606 42.1863 36.7536C41.3361 37.7362 39.9697 38.0165 38.8336 37.5121C38.7513 37.4755 38.6671 37.3987 38.5683 37.3548C38.4862 37.8506 38.4608 38.3518 38.2487 38.8293C36.9546 41.7436 33.5546 43.0527 30.6402 41.7586C27.7259 40.4645 26.4004 37.0571 27.6945 34.1428ZM44.0823 71.8152C41.9469 64.2832 32.6604 60.1597 25.6246 63.6193C22.2101 65.3161 19.642 60.1348 23.073 58.4453C28.1207 55.9559 33.9705 55.8332 39.1077 58.1143C44.2448 60.3954 48.0767 64.8171 49.6151 70.231C50.6809 73.9567 45.1115 75.4458 44.0823 71.8152ZM70.3594 46.6419L64.5752 45.9067C65.1885 47.3223 65.2732 48.996 64.5932 50.5273C63.2991 53.4416 59.8991 54.7506 56.9847 53.4566C54.0704 52.1625 52.7613 48.7624 54.0554 45.8481C54.2674 45.3706 54.613 44.9918 54.9349 44.6222C54.8287 44.5948 54.7391 44.5747 54.6403 44.5308C53.5042 44.0264 52.7959 42.8248 52.9546 41.5352C53.1644 39.9528 54.6055 38.8384 56.1713 39.0409L71.0983 40.9382C72.6641 41.1407 73.7951 42.5891 73.5926 44.1549C73.3827 45.7373 71.9417 46.8517 70.3594 46.6419Z" fill="#3966FD"/>
</svg>
